<svg xmlns="http://www.w3.org/2000/svg" viewBox="0 0 100 125" x="0px" y="0px"><title>Creator Icon_20</title><path d="M76.21631,74.74609V25.25391c0-6.61963-11.27051-11.61133-26.21631-11.61133s-26.21631,4.9917-26.21631,11.61133V74.74609c0,6.61963,11.27051,11.61133,26.21631,11.61133S76.21631,81.36572,76.21631,74.74609Zm-3,0c0,4.07324-9.53467,8.61133-23.21631,8.61133s-23.21631-4.53809-23.21631-8.61133V63.8125C31.0932,67.473,39.66675,69.85986,50,69.85986S68.9068,67.473,73.21631,63.8125Zm0-16.49756c0,4.07324-9.53467,8.61133-23.21631,8.61133s-23.21631-4.53809-23.21631-8.61133V47.31506C31.0932,50.9754,39.66675,53.3623,50,53.3623s18.9068-2.3869,23.21631-6.04724Zm0-16.49707c0,4.07275-9.53467,8.61084-23.21631,8.61084s-23.21631-4.53809-23.21631-8.61084V30.81787C31.0932,34.47833,39.66675,36.86523,50,36.86523s18.9068-2.3869,23.21631-6.04736ZM50,33.86523c-13.68164,0-23.21631-4.53809-23.21631-8.61133S36.31836,16.64258,50,16.64258s23.21631,4.53809,23.21631,8.61133S63.68164,33.86523,50,33.86523Z"/><text x="0" y="115" fill="#000000" font-size="5px" font-weight="bold" font-family="'Helvetica Neue', Helvetica, Arial-Unicode, Arial, Sans-serif">Created by sasicreatives</text><text x="0" y="120" fill="#000000" font-size="5px" font-weight="bold" font-family="'Helvetica Neue', Helvetica, Arial-Unicode, Arial, Sans-serif">from the Noun Project</text></svg>