<svg xmlns="http://www.w3.org/2000/svg" xmlns:xlink="http://www.w3.org/1999/xlink" version="1.1" x="0px" y="0px" viewBox="0 0 100 125" style="enable-background:new 0 0 100 100;" xml:space="preserve"><path d="M38.317,35.498c-1.55,1.685-1.46,3.348-1.448,3.449v19.82c0,1.602,1.304,2.906,2.906,2.906l1.362,0L38.89,66.26  c-0.243,0.496-0.038,1.095,0.458,1.338c0.142,0.069,0.292,0.102,0.439,0.102c0.37,0,0.726-0.206,0.899-0.56l0.431-0.879h17.768  l0.431,0.879c0.173,0.354,0.529,0.56,0.899,0.56c0.147,0,0.297-0.033,0.439-0.102c0.496-0.243,0.701-0.842,0.458-1.338l-2.248-4.59  l0.417,0c0.027,0.002,0.088,0.005,0.175,0.005c0.48,0,1.765-0.089,2.704-0.973c0.445-0.419,0.975-1.184,0.974-2.449l-0.003-19.229  c0.014-0.185,0.095-1.849-1.463-3.533c-2.088-2.256-6.013-3.4-11.666-3.4C44.328,32.091,40.397,33.237,38.317,35.498z   M42.096,64.261l1.268-2.589l13.273-0.001l1.268,2.59H42.096z M61.132,58.254C61.132,58.255,61.132,58.255,61.132,58.254  c0,0.445-0.111,0.768-0.34,0.987c-0.408,0.389-1.148,0.441-1.452,0.431H39.774c-0.5,0-0.906-0.406-0.906-0.906l-0.001-7.208h22.264  V58.254z M61.132,49.559H38.867l-0.001-7.705h22.266V49.559z M61.132,38.947v0.908H38.865l0-0.991  c-0.001-0.009-0.034-0.971,0.923-2.012c1.159-1.26,3.872-2.761,10.211-2.761c6.239,0,8.957,1.466,10.139,2.696  C61.163,37.853,61.135,38.845,61.132,38.947z"/><path d="M43.33,56.518h1.55c0.552,0,1-0.448,1-1s-0.448-1-1-1h-1.55c-0.552,0-1,0.448-1,1S42.777,56.518,43.33,56.518z"/><path d="M55.121,56.518h1.55c0.552,0,1-0.448,1-1s-0.448-1-1-1h-1.55c-0.552,0-1,0.448-1,1S54.568,56.518,55.121,56.518z"/><path d="M79.69,16.249c0.469,2.427,2.604,4.267,5.166,4.267c2.904,0,5.267-2.363,5.267-5.267c0-2.905-2.363-5.268-5.267-5.268  c-2.562,0-4.697,1.84-5.166,4.268H68.294c-0.294,0-0.573,0.129-0.763,0.354l-8.582,10.143c-2.764-0.973-5.733-1.508-8.826-1.508  c-3.093,0-6.061,0.535-8.825,1.508l-8.582-10.143c-0.19-0.225-0.469-0.354-0.763-0.354H20.557c-0.469-2.427-2.604-4.268-5.166-4.268  c-2.905,0-5.268,2.363-5.268,5.268c0,2.904,2.363,5.267,5.268,5.267c2.562,0,4.697-1.84,5.166-4.267h10.932l7.849,9.277  c-9.076,4.033-15.494,12.986-15.85,23.456h-2.95c-0.507-2.378-2.621-4.168-5.148-4.168c-2.905,0-5.268,2.363-5.268,5.268  c0,2.904,2.363,5.267,5.268,5.267c2.596,0,4.746-1.892,5.176-4.366h2.926c0.423,10.505,6.951,19.463,16.128,23.413l-7.919,9.359  H20.557c-0.469-2.427-2.604-4.267-5.166-4.267c-2.905,0-5.268,2.363-5.268,5.267c0,2.905,2.363,5.268,5.268,5.268  c2.562,0,4.697-1.84,5.166-4.268h11.608c0.294,0,0.573-0.129,0.763-0.354l8.672-10.25c2.678,0.906,5.542,1.405,8.522,1.405  c2.98,0,5.845-0.499,8.523-1.405l8.673,10.251c0.19,0.225,0.469,0.354,0.763,0.354H79.69c0.469,2.427,2.604,4.268,5.166,4.268  c2.904,0,5.267-2.363,5.267-5.268c0-2.904-2.363-5.267-5.267-5.267c-2.562,0-4.697,1.84-5.166,4.267H68.546l-7.919-9.359  c9.176-3.949,15.704-12.907,16.127-23.412h2.926c0.43,2.475,2.58,4.366,5.176,4.366c2.904,0,5.267-2.363,5.267-5.267  c0-2.905-2.363-5.268-5.267-5.268c-2.527,0-4.64,1.79-5.148,4.168h-2.95c-0.355-10.47-6.773-19.423-15.85-23.456l7.849-9.277H79.69z   M84.856,11.981c1.801,0,3.267,1.466,3.267,3.268c0,1.801-1.466,3.267-3.267,3.267s-3.267-1.466-3.267-3.267  C81.589,13.447,83.055,11.981,84.856,11.981z M15.391,18.516c-1.802,0-3.268-1.466-3.268-3.267c0-1.802,1.466-3.268,3.268-3.268  c1.801,0,3.267,1.466,3.267,3.268C18.658,17.05,17.192,18.516,15.391,18.516z M15.391,53.347c-1.802,0-3.268-1.466-3.268-3.267  c0-1.802,1.466-3.268,3.268-3.268c1.801,0,3.267,1.466,3.267,3.268C18.658,51.881,17.192,53.347,15.391,53.347z M15.391,88.021  c-1.802,0-3.268-1.466-3.268-3.268c0-1.801,1.466-3.267,3.268-3.267c1.801,0,3.267,1.466,3.267,3.267  C18.658,86.555,17.192,88.021,15.391,88.021z M84.856,81.486c1.801,0,3.267,1.466,3.267,3.267c0,1.802-1.466,3.268-3.267,3.268  s-3.267-1.466-3.267-3.268C81.589,82.952,83.055,81.486,84.856,81.486z M84.856,46.812c1.801,0,3.267,1.466,3.267,3.268  c0,1.801-1.466,3.267-3.267,3.267s-3.267-1.466-3.267-3.267C81.589,48.278,83.055,46.812,84.856,46.812z M74.782,49.896  c0,13.597-11.062,24.658-24.658,24.658S25.465,63.492,25.465,49.896s11.062-24.658,24.658-24.658S74.782,36.299,74.782,49.896z"/><text x="0" y="115" fill="#000000" font-size="5px" font-weight="bold" font-family="'Helvetica Neue', Helvetica, Arial-Unicode, Arial, Sans-serif">Created by Made</text><text x="0" y="120" fill="#000000" font-size="5px" font-weight="bold" font-family="'Helvetica Neue', Helvetica, Arial-Unicode, Arial, Sans-serif">from the Noun Project</text></svg>