<svg xmlns="http://www.w3.org/2000/svg" xmlns:xlink="http://www.w3.org/1999/xlink" xml:space="preserve" version="1.1" style="shape-rendering:geometricPrecision;text-rendering:geometricPrecision;image-rendering:optimizeQuality;" viewBox="0 0 278 787.5" x="0px" y="0px" fill-rule="evenodd" clip-rule="evenodd"><defs><style type="text/css">
   
    .fil0 {fill:black}
   
  </style></defs><g><path class="fil0" d="M0 0l278 0 0 630 -278 0 0 -630zm22 23l234 0 0 584 -234 0 0 -584z"/><path class="fil0" d="M77 74l125 0c10,0 18,9 18,19 0,10 -8,18 -18,18l-125 0c-10,0 -19,-8 -19,-18 0,-10 9,-19 19,-19z"/><path class="fil0" d="M77 154l125 0c10,0 18,8 18,18 0,10 -8,18 -18,18l-125 0c-10,0 -19,-8 -19,-18 0,-10 9,-18 19,-18z"/><circle class="fil0" cx="139" cy="459" r="35"/><circle class="fil0" cx="139" cy="537" r="20"/></g><text x="0" y="645" fill="#000000" font-size="5px" font-weight="bold" font-family="'Helvetica Neue', Helvetica, Arial-Unicode, Arial, Sans-serif">Created by SANTRI ICON</text><text x="0" y="650" fill="#000000" font-size="5px" font-weight="bold" font-family="'Helvetica Neue', Helvetica, Arial-Unicode, Arial, Sans-serif">from the Noun Project</text></svg>