<svg xmlns="http://www.w3.org/2000/svg" xmlns:xlink="http://www.w3.org/1999/xlink" version="1.1" x="0px" y="0px" viewBox="0 0 100 125" style="enable-background:new 0 0 100 100;" xml:space="preserve"><style type="text/css">
	.st0{fill:none;stroke:#000000;stroke-width:2;stroke-linecap:round;stroke-linejoin:round;stroke-miterlimit:10;}
	.st1{fill:#FFFFFF;}
	.st2{fill:none;stroke:#000000;stroke-width:2;stroke-miterlimit:10;}
	.st3{fill:#FFFFFF;stroke:#000000;stroke-width:2;stroke-linecap:round;stroke-miterlimit:10;}
	.st4{fill:none;stroke:#000000;stroke-width:2;stroke-linecap:round;stroke-miterlimit:10;}
	.st5{fill:none;stroke:#000000;stroke-width:2;stroke-linejoin:round;stroke-miterlimit:10;}
	.st6{fill:#FFFFFF;stroke:#000000;stroke-width:2;stroke-miterlimit:10;}
	.st7{fill:none;stroke:#000000;stroke-width:2;stroke-linecap:round;stroke-linejoin:round;}
	.st8{fill:none;stroke:#000000;stroke-width:2;stroke-linecap:round;stroke-linejoin:round;stroke-dasharray:8.7778,8.7778;}
	.st9{fill:none;stroke:#000000;stroke-width:2.2;stroke-linecap:round;stroke-linejoin:round;stroke-miterlimit:10;}
	.st10{fill:none;stroke:#000000;stroke-width:2;stroke-linecap:round;stroke-miterlimit:10;stroke-dasharray:0.9328,3.731;}
	
		.st11{fill:none;stroke:#000000;stroke-width:2;stroke-linecap:round;stroke-linejoin:round;stroke-miterlimit:10;stroke-dasharray:1,4;}
	.st12{fill:none;stroke:#000000;stroke-miterlimit:10;}
	.st13{fill:none;stroke:#000000;stroke-width:10;stroke-linecap:round;stroke-linejoin:round;stroke-miterlimit:10;}
	.st14{fill:none;stroke:#000000;stroke-width:8;stroke-miterlimit:10;}
</style><path d="M66.692,8.341c-4.269,0-8.483,0.907-12.379,2.646c-4.093-5.214-10.521-8.145-17.401-7.633  C26.354,4.14,18.079,13.248,18.255,23.835c0.001,0.05,0.002,0.101,0.003,0.151C9.168,27.668,3.187,36.662,3.601,46.802  c0.52,12.728,11.394,22.593,24.132,22.593h11.781h3.136c2.017,0,3.652-1.635,3.652-3.652v-4.348V40.376l6.224,6.698  c0.556,0.598,1.492,0.632,2.089,0.075l2.806-2.615c0.596-0.556,0.63-1.49,0.075-2.087L43.729,27.637  c-0.441-0.475-1.193-0.475-1.634,0L28.322,42.448c-0.555,0.597-0.522,1.531,0.075,2.087l2.807,2.615  c0.597,0.557,1.533,0.523,2.089-0.075l6.222-6.691v21.013H27.597c-8.296,0-15.467-6.304-15.984-14.584  c-0.477-7.643,4.555-14.37,11.908-16.134l2.572-0.618c0.666-0.16,1.084-0.819,0.946-1.49l-0.534-2.59  c-0.167-0.81-0.252-1.644-0.252-2.479c0-6.73,5.476-12.206,12.206-12.206c4.627,0,8.802,2.578,10.894,6.729l1.333,2.644  c0.334,0.661,1.16,0.898,1.793,0.512l2.527-1.54c3.543-2.159,7.584-3.3,11.687-3.3c12.71,0,22.995,10.58,22.511,23.396  c-0.461,12.191-10.865,21.659-23.064,21.659h-5.654H57.35c-2.017,0-3.652,1.635-3.652,3.652v4.348V82.54l-6.226-6.698  c-0.556-0.598-1.491-0.632-2.089-0.075l-2.807,2.614c-0.597,0.556-0.63,1.49-0.075,2.087l13.77,14.811  c0.441,0.475,1.193,0.475,1.634,0l13.772-14.811c0.555-0.597,0.522-1.531-0.075-2.087l-2.807-2.614  c-0.597-0.556-1.533-0.523-2.089,0.075l-6.222,6.693V69.396h5.558c16.611,0,30.67-13,31.163-29.604  C97.718,22.539,83.832,8.341,66.692,8.341z"/><text x="0" y="115" fill="#000000" font-size="5px" font-weight="bold" font-family="'Helvetica Neue', Helvetica, Arial-Unicode, Arial, Sans-serif">Created by Eliricon</text><text x="0" y="120" fill="#000000" font-size="5px" font-weight="bold" font-family="'Helvetica Neue', Helvetica, Arial-Unicode, Arial, Sans-serif">from the Noun Project</text></svg>