<svg xmlns="http://www.w3.org/2000/svg" data-name="Layer 1" viewBox="0 0 32 40" x="0px" y="0px"><title>expand-navigation</title><path d="M11.89,8.76a8.83,8.83,0,0,0-8.82,8.82c0,4.59,7.27,12.26,8.1,13.11a1,1,0,0,0,1.44,0c.83-.85,8.1-8.52,8.1-13.11A8.83,8.83,0,0,0,11.89,8.76Zm0,19.78c-2.41-2.64-6.82-8.07-6.82-11a6.82,6.82,0,0,1,13.64,0C18.71,20.47,14.3,25.9,11.89,28.54Z"/><path d="M11.89,14.28a3.3,3.3,0,1,0,3.3,3.3A3.3,3.3,0,0,0,11.89,14.28Zm0,4.6a1.3,1.3,0,1,1,1.3-1.3A1.3,1.3,0,0,1,11.89,18.88Z"/><path d="M15.05,4.68a1,1,0,0,0,0,2,7.75,7.75,0,0,1,7.74,7.74,1,1,0,1,0,2,0A9.75,9.75,0,0,0,15.05,4.68Z"/><path d="M15.05,1a1,1,0,0,0,0,2A11.89,11.89,0,0,1,26.93,14.88a1,1,0,1,0,2,0A13.89,13.89,0,0,0,15.05,1Z"/><text x="0" y="47" fill="#000000" font-size="5px" font-weight="bold" font-family="'Helvetica Neue', Helvetica, Arial-Unicode, Arial, Sans-serif">Created by HideMaru</text><text x="0" y="52" fill="#000000" font-size="5px" font-weight="bold" font-family="'Helvetica Neue', Helvetica, Arial-Unicode, Arial, Sans-serif">from the Noun Project</text></svg>