<svg xmlns="http://www.w3.org/2000/svg" xmlns:xlink="http://www.w3.org/1999/xlink" version="1.1" x="0px" y="0px" viewBox="0 0 100 125" style="enable-background:new 0 0 100 100;" xml:space="preserve"><g><path d="M94,50.4h0.5v-8.3c0-0.9-0.7-1.5-1.5-1.5H77.6c-0.2-0.6-0.3-1.2-0.3-1.8c0-3.2,2.6-5.8,5.8-5.8h0.5v-8.3   c0-0.9-0.7-1.5-1.5-1.5H7c-0.9,0-1.5,0.7-1.5,1.5V33H6c3.2,0,5.8,2.6,5.8,5.8c0,3.2-2.6,5.8-5.8,5.8H5.5v8.3c0,0.9,0.7,1.5,1.5,1.5   h5.1l0.4,1.9l0.5-0.1c3.1-0.7,6.2,1.3,6.9,4.4c0.7,3.1-1.3,6.2-4.4,6.9L15,67.5l1.8,8.1c0.1,0.4,0.3,0.7,0.7,1   c0.3,0.2,0.5,0.2,0.8,0.2c0.1,0,0.2,0,0.3,0L42,71.8H93c0.9,0,1.5-0.7,1.5-1.5v-8.3H94c-3.2,0-5.8-2.6-5.8-5.8   C88.2,53,90.8,50.4,94,50.4z M7,53.4c-0.3,0-0.5-0.2-0.5-0.5v-7.3c3.5-0.3,6.3-3.2,6.3-6.8c0-3.6-2.8-6.5-6.3-6.7v-7.3   c0-0.3,0.2-0.5,0.5-0.5h23.5v1.8h1v-1.8H82c0.3,0,0.5,0.2,0.5,0.5V32c-3.5,0.3-6.3,3.2-6.3,6.7c0,0.6,0.1,1.2,0.2,1.8H71v-2.1   c0-2-0.8-4-2.1-5.5c-1.5-1.7-3.8-2.7-6.1-2.7H42.7c-2.1,0-3.9,1.7-3.9,3.9v8.7c0,1.6,1.1,2.9,2.6,3.2v7.5h-2.9l-2.7-12.3l-4.4,1   v-1.5h-1v1.7l-18.5,4c-0.4,0.1-0.7,0.3-1,0.7c-0.2,0.3-0.3,0.8-0.2,1.2l1.1,5.2H7z M41.5,66.6l-2.7-12.3h2.7V66.6z M41.5,40.5v4.6   c-1.1-0.3-1.9-1.3-1.9-2.4v-8.7c0-1.7,1.4-3.1,3.1-3.1h20.1c1.8,0,3.5,0.7,4.9,1.8h-1.2c-0.7,0-1.3,0.6-1.3,1.3v3.5   c0,0.7,0.6,1.3,1.3,1.3h3.8v1.5H41.5z M68.4,33.5c1.1,1.3,1.8,3,1.8,4.7h-3.7c-0.3,0-0.6-0.3-0.6-0.6v-3.5c0-0.3,0.3-0.6,0.6-0.6   H68.4z M18.4,75.9c-0.1,0-0.3,0-0.4-0.1c-0.1-0.1-0.2-0.2-0.2-0.3l-1.6-7.2c3.4-1,5.5-4.4,4.7-7.9c-0.8-3.5-4.1-5.8-7.6-5.3   l-1.6-7.2c0-0.1,0-0.3,0.1-0.4c0.1-0.1,0.2-0.2,0.3-0.2l23-5l6.2,28.6L18.4,75.9z M87.2,56.2c0,3.6,2.8,6.5,6.3,6.8v7.3   c0,0.3-0.2,0.5-0.5,0.5H42.5V41.5H93c0.3,0,0.5,0.2,0.5,0.5v7.3C90,49.7,87.2,52.6,87.2,56.2z"/><rect x="30.5" y="36.4" width="1" height="2.1"/><rect x="30.5" y="28" width="1" height="2.1"/><rect x="30.5" y="32.2" width="1" height="2.1"/><path d="M73.8,47.6H53.7c-2.1,0-3.9,1.7-3.9,3.9v8.7c0,1.8,1.5,3.3,3.3,3.3h1c0.2,1.4,1.3,2.4,2.7,2.4s2.6-1.1,2.7-2.4h12.2   c0.2,1.4,1.3,2.4,2.7,2.4s2.6-1.1,2.7-2.4h1.4c1.8,0,3.3-1.5,3.3-3.3v-4.3C82,51.3,78.3,47.6,73.8,47.6z M79.4,50.9   c1.1,1.3,1.8,2.9,1.8,4.7h-3.8c-0.3,0-0.6-0.3-0.6-0.6v-3.5c0-0.3,0.3-0.6,0.6-0.6H79.4z M56.8,65.1c-1.1,0-2-0.9-2-2   c0-1.1,0.9-2,2-2c1.1,0,2,0.9,2,2C58.8,64.1,57.9,65.1,56.8,65.1z M74.5,65.1c-1.1,0-2-0.9-2-2c0-1.1,0.9-2,2-2c1.1,0,2,0.9,2,2   C76.5,64.1,75.6,65.1,74.5,65.1z M78.6,62.6h-1.4c-0.2-1.4-1.3-2.4-2.7-2.4s-2.6,1-2.7,2.4H59.6c-0.2-1.4-1.3-2.4-2.7-2.4   s-2.6,1-2.7,2.4h-1c-1.4,0-2.5-1.1-2.5-2.5v-8.7c0-1.7,1.4-3.1,3.1-3.1h20.1c1.9,0,3.6,0.7,4.9,1.8h-1.2c-0.7,0-1.3,0.6-1.3,1.3   v3.5c0,0.7,0.6,1.3,1.3,1.3h3.8v3.6C81.2,61.5,80.1,62.6,78.6,62.6z"/><path d="M56,50.2h-1.9c-0.8,0-1.4,0.6-1.4,1.4V55c0,0.8,0.6,1.4,1.4,1.4H56c0.8,0,1.4-0.6,1.4-1.4v-3.5   C57.4,50.8,56.7,50.2,56,50.2z M56.6,55c0,0.3-0.3,0.6-0.6,0.6h-1.9c-0.3,0-0.6-0.3-0.6-0.6v-3.5c0-0.3,0.3-0.6,0.6-0.6H56   c0.3,0,0.6,0.3,0.6,0.6V55z"/><path d="M61.5,50.2h-1.9c-0.8,0-1.4,0.6-1.4,1.4V55c0,0.8,0.6,1.4,1.4,1.4h1.9c0.8,0,1.4-0.6,1.4-1.4v-3.5   C62.9,50.8,62.3,50.2,61.5,50.2z M62.2,55c0,0.3-0.3,0.6-0.6,0.6h-1.9c-0.3,0-0.6-0.3-0.6-0.6v-3.5c0-0.3,0.3-0.6,0.6-0.6h1.9   c0.3,0,0.6,0.3,0.6,0.6V55z"/><path d="M67.1,50.2h-1.9c-0.8,0-1.4,0.6-1.4,1.4V55c0,0.8,0.6,1.4,1.4,1.4h1.9c0.8,0,1.4-0.6,1.4-1.4v-3.5   C68.5,50.8,67.9,50.2,67.1,50.2z M67.7,55c0,0.3-0.3,0.6-0.6,0.6h-1.9c-0.3,0-0.6-0.3-0.6-0.6v-3.5c0-0.3,0.3-0.6,0.6-0.6h1.9   c0.3,0,0.6,0.3,0.6,0.6V55z"/><path d="M72.7,50.2h-1.9c-0.8,0-1.4,0.6-1.4,1.4V55c0,0.8,0.6,1.4,1.4,1.4h1.9c0.8,0,1.4-0.6,1.4-1.4v-3.5   C74,50.8,73.4,50.2,72.7,50.2z M73.3,55c0,0.3-0.3,0.6-0.6,0.6h-1.9c-0.3,0-0.6-0.3-0.6-0.6v-3.5c0-0.3,0.3-0.6,0.6-0.6h1.9   c0.3,0,0.6,0.3,0.6,0.6V55z"/><path d="M57.6,47.3h4.1c0.2,0,0.4-0.2,0.4-0.4s-0.2-0.4-0.4-0.4h-4.1c-0.2,0-0.4,0.2-0.4,0.4S57.4,47.3,57.6,47.3z"/><path d="M67.2,47.3h4.1c0.2,0,0.4-0.2,0.4-0.4s-0.2-0.4-0.4-0.4h-4.1c-0.2,0-0.4,0.2-0.4,0.4S67,47.3,67.2,47.3z"/><path d="M45,32.8h-1.9c-0.8,0-1.4,0.6-1.4,1.4v3.5c0,0.8,0.6,1.4,1.4,1.4H45c0.8,0,1.4-0.6,1.4-1.4v-3.5   C46.4,33.4,45.8,32.8,45,32.8z M45.7,37.6c0,0.3-0.3,0.6-0.6,0.6h-1.9c-0.3,0-0.6-0.3-0.6-0.6v-3.5c0-0.3,0.3-0.6,0.6-0.6H45   c0.3,0,0.6,0.3,0.6,0.6V37.6z"/><path d="M50.6,32.8h-1.9c-0.8,0-1.4,0.6-1.4,1.4v3.5c0,0.8,0.6,1.4,1.4,1.4h1.9c0.8,0,1.4-0.6,1.4-1.4v-3.5   C52,33.4,51.3,32.8,50.6,32.8z M51.2,37.6c0,0.3-0.3,0.6-0.6,0.6h-1.9c-0.3,0-0.6-0.3-0.6-0.6v-3.5c0-0.3,0.3-0.6,0.6-0.6h1.9   c0.3,0,0.6,0.3,0.6,0.6V37.6z"/><path d="M56.1,32.8h-1.9c-0.8,0-1.4,0.6-1.4,1.4v3.5c0,0.8,0.6,1.4,1.4,1.4h1.9c0.8,0,1.4-0.6,1.4-1.4v-3.5   C57.5,33.4,56.9,32.8,56.1,32.8z M56.8,37.6c0,0.3-0.3,0.6-0.6,0.6h-1.9c-0.3,0-0.6-0.3-0.6-0.6v-3.5c0-0.3,0.3-0.6,0.6-0.6h1.9   c0.3,0,0.6,0.3,0.6,0.6V37.6z"/><path d="M61.7,32.8h-1.9c-0.8,0-1.4,0.6-1.4,1.4v3.5c0,0.8,0.6,1.4,1.4,1.4h1.9c0.8,0,1.4-0.6,1.4-1.4v-3.5   C63.1,33.4,62.5,32.8,61.7,32.8z M62.3,37.6c0,0.3-0.3,0.6-0.6,0.6h-1.9c-0.3,0-0.6-0.3-0.6-0.6v-3.5c0-0.3,0.3-0.6,0.6-0.6h1.9   c0.3,0,0.6,0.3,0.6,0.6V37.6z"/><path d="M46.7,29.8h4.1c0.2,0,0.4-0.2,0.4-0.4s-0.2-0.4-0.4-0.4h-4.1c-0.2,0-0.4,0.2-0.4,0.4S46.5,29.8,46.7,29.8z"/><path d="M56.2,29.8h4.1c0.2,0,0.4-0.2,0.4-0.4s-0.2-0.4-0.4-0.4h-4.1c-0.2,0-0.4,0.2-0.4,0.4S56,29.8,56.2,29.8z"/></g><text x="0" y="115" fill="#000000" font-size="5px" font-weight="bold" font-family="'Helvetica Neue', Helvetica, Arial-Unicode, Arial, Sans-serif">Created by Iulia Ardeleanu</text><text x="0" y="120" fill="#000000" font-size="5px" font-weight="bold" font-family="'Helvetica Neue', Helvetica, Arial-Unicode, Arial, Sans-serif">from the Noun Project</text></svg>