<svg xmlns="http://www.w3.org/2000/svg" xmlns:xlink="http://www.w3.org/1999/xlink" version="1.1" x="0px" y="0px" viewBox="0 0 64 80" style="enable-background:new 0 0 64 64;" xml:space="preserve"><g><path d="M1,63h10V1H1V63z M3,27h6v10H3V27z M9,48.586l-6-6v-3.172l6,6V48.586z M5.414,39H9v3.586L5.414,39z M9,18.586L5.414,15H9   V18.586z M9,21.414v3.172l-6-6v-3.172L9,21.414z M6.586,25H3v-3.586L6.586,25z M6.586,49H3v-3.586L6.586,49z M3,61V51h6v10H3z M9,3   v10H3V3H9z"/><path d="M61,41h-2.016L59,12.829c0-0.801-0.312-1.555-0.879-2.122l-1.828-1.828C55.727,8.312,54.973,8,54.172,8H31.828   c-0.801,0-1.555,0.312-2.121,0.879l-1.828,1.828C27.312,11.273,27,12.027,27,12.829V41h-2c-1.103,0-2,0.897-2,2v2   c0,1.103,0.897,2,2,2h3.119l1.97,10.566L34.4,60.8l5.407,2.2h6.385l5.255-2.105l4.45-2.225L57.956,47H61c1.103,0,2-0.897,2-2v-2   C63,41.897,62.103,41,61,41z M25,45v-2h2.373l0.373,2H25z M33.812,45L33,40.901V21h13v-2H33v-4c0-0.551,0.448-1,1-1h18   c0.552,0,1,0.449,1,1v4h-5v2h5v19.901L52.18,45H48v2h3.78l-0.761,3.804L51.001,51H35l-0.792-4H46v-2H33.812z M45.808,61h-5.615   l-3.221-1.288L36.133,53h13.735l-0.839,6.712L45.808,61z M54.103,57.331l-2.946,1.476l0.755-6.037   c0.611-0.316,1.044-0.931,1.086-1.655l1.983-9.919L55,15c0-1.654-1.346-3-3-3H34c-1.654,0-3,1.346-3,3v26l2.003,10.116   c0.042,0.724,0.474,1.338,1.086,1.654l0.731,5.844l-2.908-2.181L29,40.907V12.829c0-0.267,0.104-0.519,0.293-0.708l1.828-1.828   C31.308,10.107,31.565,10,31.828,10h22.344c0.263,0,0.521,0.107,0.707,0.293l1.828,1.828C56.896,12.31,57,12.562,57,12.829v28.084   L54.103,57.331z M61,45h-2.691l0.353-2H61V45z"/><path d="M24,3V1c-6.065,0-11,4.935-11,11h2C15,7.038,19.037,3,24,3z"/><path d="M24,5c-3.859,0-7,3.14-7,7h2c0-2.757,2.243-5,5-5V5z"/><path d="M24,11V9c-1.654,0-3,1.346-3,3h2C23,11.449,23.448,11,24,11z"/></g><text x="0" y="79" fill="#000000" font-size="5px" font-weight="bold" font-family="'Helvetica Neue', Helvetica, Arial-Unicode, Arial, Sans-serif">Created by Eucalyp</text><text x="0" y="84" fill="#000000" font-size="5px" font-weight="bold" font-family="'Helvetica Neue', Helvetica, Arial-Unicode, Arial, Sans-serif">from the Noun Project</text></svg>