<svg xmlns="http://www.w3.org/2000/svg" xmlns:xlink="http://www.w3.org/1999/xlink" version="1.1" x="0px" y="0px" viewBox="0 0 48 60" style="enable-background:new 0 0 48 48;" xml:space="preserve"><path d="M25,6h-2V4h2V6z M21,44h6v-2h-6V44z M39,5v38c0,2.8-2.2,5-5,5H14c-2.8,0-5-2.2-5-5V5c0-2.8,2.2-5,5-5h20C36.8,0,39,2.2,39,5  z M11,5v3h26V5c0-1.7-1.3-3-3-3H14C12.3,2,11,3.3,11,5z M11,10v28h26V10H11z M37,43v-3H11v3c0,1.7,1.3,3,3,3h20  C35.7,46,37,44.7,37,43z M19,36h2v-2h-2V36z M23,36h2v-2h-2V36z M27,36h2v-2h-2V36z M17,19c0-3.9,3.1-7,7-7c3.9,0,7,3.1,7,7  c0,1.2-0.4,2.3-0.7,3c-1.4,3.5-5.3,9.4-5.5,9.6C24.6,31.8,24.3,32,24,32c-0.3,0-0.6-0.2-0.8-0.4c-0.2-0.2-4.1-6.1-5.5-9.6  C17.2,20.9,17,19.9,17,19z M19,19c0,0.7,0.2,1.3,0.5,2.2c1,2.4,3.3,6,4.5,8c1.2-1.9,3.5-5.6,4.5-8c0.4-0.9,0.5-1.5,0.5-2.2  c0-2.8-2.2-5-5-5S19,16.2,19,19z M21,19c0-1.7,1.3-3,3-3s3,1.3,3,3s-1.3,3-3,3S21,20.7,21,19z M23,19c0,0.6,0.4,1,1,1s1-0.4,1-1  s-0.4-1-1-1S23,18.4,23,19z"/><text x="0" y="63" fill="#000000" font-size="5px" font-weight="bold" font-family="'Helvetica Neue', Helvetica, Arial-Unicode, Arial, Sans-serif">Created by Maxim Basinski</text><text x="0" y="68" fill="#000000" font-size="5px" font-weight="bold" font-family="'Helvetica Neue', Helvetica, Arial-Unicode, Arial, Sans-serif">from the Noun Project</text></svg>