<svg xmlns:dc="http://purl.org/dc/elements/1.1/" xmlns:cc="http://creativecommons.org/ns#" xmlns:rdf="http://www.w3.org/1999/02/22-rdf-syntax-ns#" xmlns:svg="http://www.w3.org/2000/svg" xmlns="http://www.w3.org/2000/svg" xmlns:sodipodi="http://sodipodi.sourceforge.net/DTD/sodipodi-0.dtd" xmlns:inkscape="http://www.inkscape.org/namespaces/inkscape" viewBox="0 0 26.458333 33.0729175" version="1.1" x="0px" y="0px"><g transform="translate(0,-270.54165)"><g transform="matrix(0.33086845,0,0,-0.33086845,-22.109586,487.50717)" style="" stroke-width="1.06621766"><g transform="matrix(1.0662176,0,0,1.0662176,-521.86252,-40.774361)"><g><path style="" d="m 571.16602,605.16696 c -4.342,0 -7.86,-3.521 -7.86,-7.861 0,-4.344 3.518,-7.864 7.86,-7.864 4.343,0 7.863,3.52 7.863,7.864 0,4.34 -3.52,7.861 -7.863,7.861 m -7.86,20.51 v -8.203 c 15.479,0 28.027,-12.551 28.027,-28.032 h 8.204 c 0,20.012 -16.222,36.235 -36.231,36.235 m 0,16.40601 v -8.203 c 24.541,0 44.434,-19.89701 44.434,-44.43801 h 8.204 c 0,29.075 -23.567,52.64101 -52.638,52.64101" fill="#000000" fill-opacity="1" fill-rule="nonzero" stroke="none"/></g></g></g></g><text x="0" y="41.458334" fill="#000000" font-size="5px" font-weight="bold" font-family="'Helvetica Neue', Helvetica, Arial-Unicode, Arial, Sans-serif">Created by Mitesh</text><text x="0" y="46.458334" fill="#000000" font-size="5px" font-weight="bold" font-family="'Helvetica Neue', Helvetica, Arial-Unicode, Arial, Sans-serif">from the Noun Project</text></svg>