<svg xmlns="http://www.w3.org/2000/svg" xmlns:xlink="http://www.w3.org/1999/xlink" viewBox="0 0 100 125" version="1.1" x="0px" y="0px"><title>iPhoneX outlline transit map inverted</title><desc>Created with Sketch.</desc><g stroke="none" stroke-width="1" fill="none" fill-rule="evenodd"><path d="M25.7303922,21.5497078 C25.278583,21.4573503 25.1644081,21.076793 25.1644081,20.3335237 L25.1644081,17.3664763 C25.1644081,16.6203971 25.2768401,16.2415406 25.7303922,16.1499912 L25.7303922,10.4437208 C25.7303922,7.57531483 28.0312772,5.25 30.8733234,5.25 L69.1266766,5.25 C71.964673,5.25 74.2696078,7.58173618 74.2696078,10.4436422 L74.2735818,23.0821352 C74.4656063,23.1367288 74.6021229,23.2602135 74.6754864,23.447461 C74.7410146,23.6147105 74.7494726,23.752949 74.74421,24.1256611 C74.7434703,24.1785609 74.7429805,28.538191 74.7427406,37.2045513 C74.7502726,37.7464249 74.7419899,37.8824864 74.6751878,38.04878 C74.600722,38.2341516 74.4630816,38.3549074 74.2696078,38.4079349 L74.2696078,89.5562792 C74.2696078,92.4246852 71.9687228,94.75 69.1266766,94.75 L30.8733234,94.75 C28.035327,94.75 25.7303922,92.4182638 25.7303922,89.5562792 L25.7303922,44.293762 C25.2796836,44.2001818 25.1644081,43.8165483 25.1644081,43.0823291 L25.1644081,35.1621154 C25.1644081,34.4195653 25.2768917,34.0418062 25.7294595,33.9501403 L25.7272766,33.4161506 C25.2778783,33.3230972 25.1644081,32.9408971 25.1644081,32.2045513 L25.1644081,24.2843376 C25.1644081,23.5377788 25.2755032,23.1622517 25.7303922,23.0718514 L25.7303922,21.5497078 Z M25.6644081,17.3664763 L25.6644081,20.3335237 C25.6644081,20.9479008 25.7158366,21.0722222 25.9803922,21.0722222 L26.2303922,21.0722222 L26.2303922,23.55 L25.9803922,23.55 C25.7126699,23.55 25.6644081,23.6678 25.6644081,24.2843376 L25.6644081,32.2045513 C25.6644081,32.8098111 25.7170003,32.9388889 25.9763497,32.9388889 L26.2253298,32.9388889 L26.2314162,34.4277778 L25.9803922,34.4277778 C25.7142372,34.4277778 25.6644081,34.5488003 25.6644081,35.1621154 L25.6644081,43.0823291 C25.6644081,43.686075 25.7181498,43.8166667 25.9803922,43.8166667 L26.2303922,43.8166667 L26.2303922,89.5562792 C26.2303922,92.1434071 28.3127715,94.25 30.8733234,94.25 L69.1266766,94.25 C71.6913915,94.25 73.7696078,92.149718 73.7696078,89.5562792 L73.7696078,37.9388889 L74.0196078,37.9388889 C74.1534739,37.9388889 74.1888935,37.9179883 74.2112238,37.8624005 C74.2425165,37.7845019 74.2491168,37.6760772 74.2445024,37.3796771 C74.2436275,37.3230302 74.2430402,32.957917 74.2427406,24.2843376 C74.2484553,23.8214707 74.2416893,23.7108869 74.2099432,23.6298606 C74.1868418,23.5708983 74.1526732,23.55 74.0236503,23.55 L73.7737289,23.55 L73.7696078,10.4437208 C73.7696078,7.85659291 71.6872285,5.75 69.1266766,5.75 L30.8733234,5.75 C28.3086085,5.75 26.2303922,7.85028201 26.2303922,10.4437208 L26.2303922,16.6277778 L25.9803922,16.6277778 C25.7145369,16.6277778 25.6644081,16.7500675 25.6644081,17.3664763 Z" fill="#000000" fill-rule="nonzero"/><path d="M37.0051957,7 C37.7141617,7 37.6812594,7.49115593 37.6994858,7.63974847 C37.9229696,9.46172214 39.4758111,10.8726212 41.3581856,10.8726212 L58.6418144,10.8726212 C60.3554995,10.8726212 61.7960674,9.70326748 62.2063641,8.00784163 C62.2835084,7.68906671 62.2552353,7 63.0065405,7 C64.2273093,7 66.0584624,7 68.5,7 C70.709139,7 72.5,8.790861 72.5,11 L72.5,89 C72.5,91.209139 70.709139,93 68.5,93 L31.5,93 C29.290861,93 27.5,91.209139 27.5,89 L27.5,11 C27.5,8.790861 29.290861,7 31.5,7 C33.9467537,7 35.7818189,7 37.0051957,7 Z M38.5,35 C40.4329966,35 42,33.4329966 42,31.5 C42,29.5670034 40.4329966,28 38.5,28 C36.5670034,28 35,29.5670034 35,31.5 C35,33.4329966 36.5670034,35 38.5,35 Z M38.5,53 C40.4329966,53 42,51.4329966 42,49.5 C42,47.5670034 40.4329966,46 38.5,46 C36.5670034,46 35,47.5670034 35,49.5 C35,51.4329966 36.5670034,53 38.5,53 Z M38.5,71 C40.4329966,71 42,69.4329966 42,67.5 C42,65.5670034 40.4329966,64 38.5,64 C36.5670034,64 35,65.5670034 35,67.5 C35,69.4329966 36.5670034,71 38.5,71 Z M45,30 L45,33 L65,33 L65,30 L45,30 Z M45,48 L45,51 L56,51 L56,48 L45,48 Z M45,66 L45,69 L65,69 L65,66 L45,66 Z M45,72 L45,75 L59,75 L59,72 L45,72 Z M38.25,35 L38.25,46 L38.75,46 L38.75,35 L38.25,35 Z M38.25,53 L38.25,64 L38.75,64 L38.75,53 L38.25,53 Z M38.25,71 L38.25,92 L38.75,92 L38.75,71 L38.25,71 Z" fill="#000000"/></g><text x="0" y="115" fill="#000000" font-size="5px" font-weight="bold" font-family="'Helvetica Neue', Helvetica, Arial-Unicode, Arial, Sans-serif">Created by Joel Wisneski</text><text x="0" y="120" fill="#000000" font-size="5px" font-weight="bold" font-family="'Helvetica Neue', Helvetica, Arial-Unicode, Arial, Sans-serif">from the Noun Project</text></svg>