<svg xmlns="http://www.w3.org/2000/svg" xmlns:xlink="http://www.w3.org/1999/xlink" version="1.1" x="0px" y="0px" viewBox="0 0 100 125" enable-background="new 0 0 100 100" xml:space="preserve"><g><path fill="#000000" d="M91.161,53.664c-2.414-2.582-5.547-4.3-8.971-4.948c-0.203-3.535-1-6.967-2.379-10.228   c-1.559-3.683-3.787-6.989-6.627-9.829s-6.146-5.069-9.828-6.626c-3.814-1.613-7.865-2.431-12.039-2.431   c-5.962,0-11.751,1.701-16.741,4.92c-4.496,2.9-8.151,6.895-10.632,11.606c-5.512,0.377-10.64,2.722-14.557,6.683   c-4.226,4.274-6.554,9.938-6.554,15.95c0,6.043,2.349,11.729,6.614,16.011c3.874,3.889,8.913,6.201,14.332,6.61l0.028,0.114h56.672   l0.016-0.105c3.883-0.324,7.49-1.992,10.277-4.778c3.117-3.118,4.836-7.265,4.836-11.676C95.61,60.735,94.03,56.732,91.161,53.664z    M79.099,77.249c-0.107,0-0.227-0.001-0.363-0.005l-1.865-0.053l-0.016,0.105H27.088l-0.011-0.042l-1.632-0.007   c-10.151-0.042-18.41-8.335-18.41-18.486c0-10.071,8.19-18.363,18.258-18.486l1.31-0.016l0.562-1.183   c4.407-9.279,13.888-15.275,24.153-15.275c14.736,0,26.725,11.988,26.725,26.724v1.993l1.949,0.14   c6.402,0.459,11.418,5.853,11.418,12.279C91.409,71.727,85.886,77.249,79.099,77.249z"/><path fill="#000000" d="M39.803,59.571c-0.046-0.634-0.6-1.113-1.234-1.066L37.55,58.58c-0.227-0.685-0.55-1.319-0.954-1.896   l0.667-0.771c0.416-0.482,0.362-1.213-0.119-1.629l-0.978-0.845c-0.467-0.401-1.226-0.347-1.627,0.119l-0.667,0.773   c-0.627-0.314-1.303-0.542-2.013-0.668l-0.075-1.018c-0.046-0.634-0.601-1.113-1.235-1.066l-1.288,0.094   c-0.635,0.047-1.113,0.602-1.067,1.235l0.075,1.017c-0.684,0.229-1.32,0.551-1.896,0.956l-0.771-0.667   c-0.465-0.404-1.225-0.349-1.629,0.118l-0.844,0.979c-0.202,0.233-0.3,0.531-0.278,0.839c0.023,0.308,0.164,0.588,0.397,0.788   l0.773,0.668c-0.316,0.627-0.543,1.304-0.668,2.013l-1.018,0.075c-0.634,0.046-1.113,0.601-1.066,1.234l0.095,1.289   c0.046,0.634,0.601,1.113,1.235,1.065l1.017-0.073c0.228,0.684,0.55,1.319,0.955,1.895l-0.667,0.773   c-0.202,0.232-0.3,0.529-0.277,0.838c0.021,0.308,0.163,0.589,0.396,0.79l0.979,0.844c0.232,0.202,0.531,0.3,0.838,0.277   s0.588-0.163,0.789-0.396l0.668-0.773c0.627,0.315,1.304,0.542,2.013,0.669l0.075,1.017c0.046,0.634,0.602,1.112,1.235,1.066   l1.288-0.095c0.635-0.046,1.113-0.601,1.066-1.235l-0.075-1.017c0.684-0.228,1.32-0.55,1.895-0.954l0.773,0.667   c0.234,0.202,0.532,0.3,0.84,0.277c0.307-0.023,0.587-0.164,0.788-0.397l0.844-0.978c0.417-0.48,0.363-1.211-0.118-1.628   l-0.774-0.667c0.316-0.628,0.543-1.304,0.668-2.013l1.017-0.074c0.635-0.047,1.113-0.602,1.066-1.236L39.803,59.571z    M30.918,65.446c-0.664,0.049-1.314-0.045-1.934-0.276c-1.664-0.624-2.822-2.17-2.952-3.94c-0.183-2.511,1.709-4.702,4.218-4.887   c0.664-0.049,1.314,0.045,1.933,0.276c1.664,0.623,2.824,2.17,2.954,3.94C35.32,63.07,33.427,65.262,30.918,65.446z"/><path fill="#000000" d="M69.075,48.296c-0.078-1.067-1.01-1.873-2.076-1.793l-1.711,0.126c-0.381-1.15-0.926-2.219-1.604-3.187   l1.121-1.299c0.699-0.811,0.609-2.038-0.199-2.737l-1.645-1.421c-0.785-0.675-2.061-0.582-2.736,0.201l-1.123,1.301   c-1.055-0.53-2.191-0.912-3.385-1.125l-0.125-1.708c-0.078-1.067-1.01-1.872-2.078-1.793L51.35,35.02   c-1.067,0.079-1.872,1.011-1.793,2.078l0.126,1.709c-1.149,0.383-2.219,0.926-3.187,1.606l-1.298-1.121   c-0.782-0.68-2.059-0.586-2.737,0.199l-1.419,1.645c-0.339,0.392-0.504,0.893-0.467,1.41c0.04,0.517,0.277,0.989,0.668,1.325   l1.3,1.124c-0.531,1.054-0.914,2.192-1.124,3.385l-1.709,0.125c-1.068,0.078-1.871,1.01-1.793,2.076l0.158,2.167   c0.079,1.065,1.01,1.872,2.077,1.793l1.709-0.125c0.382,1.149,0.926,2.218,1.606,3.186l-1.123,1.299   c-0.339,0.392-0.504,0.893-0.466,1.41c0.037,0.516,0.274,0.989,0.666,1.328l1.645,1.418c0.392,0.339,0.894,0.505,1.41,0.468   c0.518-0.037,0.988-0.275,1.326-0.667l1.124-1.302c1.055,0.532,2.191,0.913,3.384,1.125l0.125,1.709   c0.078,1.065,1.01,1.872,2.077,1.793l2.167-0.159c1.068-0.078,1.871-1.01,1.793-2.076l-0.127-1.71   c1.15-0.384,2.221-0.926,3.188-1.605l1.299,1.124c0.393,0.339,0.893,0.504,1.412,0.466c0.516-0.038,0.986-0.276,1.324-0.667   l1.42-1.645c0.697-0.811,0.609-2.038-0.201-2.736l-1.301-1.123c0.531-1.056,0.914-2.192,1.125-3.386l1.709-0.124   c1.066-0.077,1.869-1.011,1.793-2.079L69.075,48.296z M54.138,58.175c-1.118,0.081-2.211-0.075-3.252-0.465   c-2.797-1.048-4.745-3.649-4.963-6.627c-0.309-4.22,2.873-7.905,7.09-8.214c1.117-0.083,2.211,0.075,3.25,0.464   c2.797,1.048,4.748,3.649,4.967,6.625C61.536,54.18,58.356,57.865,54.138,58.175z"/></g><text x="0" y="115" fill="#000000" font-size="5px" font-weight="bold" font-family="'Helvetica Neue', Helvetica, Arial-Unicode, Arial, Sans-serif">Created by Evgeniy Kozachenko</text><text x="0" y="120" fill="#000000" font-size="5px" font-weight="bold" font-family="'Helvetica Neue', Helvetica, Arial-Unicode, Arial, Sans-serif">from the Noun Project</text></svg>