<svg xmlns="http://www.w3.org/2000/svg" xmlns:xlink="http://www.w3.org/1999/xlink" version="1.1" x="0px" y="0px" viewBox="0 0 1024 1280" style="enable-background:new 0 0 1024 1024;" xml:space="preserve"><g><g><g><path d="M768.3,273.9c4.2,3.3,8.1,6.9,12,10.6c10.5,9.7,20.4,19.9,29.8,30.5c7.3,8.1,14.2,16.5,20.9,25.2     c-2.1-2.7-4.2-5.4-6.3-8.1c16.8,21.8,31.8,45,44.2,69.6c3.9,7.7,7.5,15.5,10.9,23.4c-1.3-3.2-2.7-6.4-4-9.6     c11.5,27.4,19.8,56.1,23.8,85.6c-0.5-3.5-1-7.1-1.4-10.6c3.6,26.8,3.6,53.8,0.1,80.6c0.5-3.5,1-7.1,1.4-10.6     c-4,29.3-12.1,57.9-23.6,85.1c1.3-3.2,2.7-6.4,4-9.6c-14.8,35-34.9,67.4-58,97.5c2.1-2.7,4.2-5.4,6.3-8.1     c-38.8,50.2-85.8,93.5-135.9,132.3c2.7-2.1,5.4-4.2,8.1-6.3c-12.3,9.5-24.7,18.7-37.4,27.6c-7.3,5.2-12.8,10.7-16.4,19.1     c-3.4,7.9-4.7,17.6-2,26c2.1,6.6,5.6,12.5,10.3,17.7c6.2,6.8,19,12.5,28.3,11.7c22.3-1.9,44.5-3.8,66.8-5.7     c35.5-3,71.1-6.1,106.6-9.1c8.2-0.7,16.5-1.4,24.7-2.1c10.8-0.9,20.4-3.8,28.3-11.7c6.9-6.9,12.2-18.3,11.7-28.3     c-0.5-10.3-3.9-21.1-11.7-28.3c-7.4-6.8-17.8-12.6-28.3-11.7c-22.3,1.9-44.5,3.8-66.8,5.7c-35.5,3-71.1,6.1-106.6,9.1     c-8.2,0.7-16.5,1.4-24.7,2.1c6.7,24.8,13.5,49.7,20.2,74.5c83.3-59,162.3-128.3,216.5-215.8c37-59.7,60.3-128.4,60.8-199     c0.4-57.7-14.7-113.9-39.6-165.6c-18.9-39.2-44.5-75.3-73.3-107.9c-13.1-14.9-27.1-29.3-42.5-42c-0.2-0.2-0.4-0.4-0.6-0.5     c-8.6-6.9-16.8-11.7-28.3-11.7c-9.8,0-21.5,4.4-28.3,11.7c-7,7.6-12.2,17.6-11.7,28.3C757,255.5,760.1,267.4,768.3,273.9     L768.3,273.9z"/></g></g><g><g><path d="M695.7,733.1c-5.7,19-11.4,38.1-17.1,57.1c-9.2,30.6-18.3,61.1-27.5,91.7c-2.1,7-4.2,14-6.3,21     c-6,20,7.2,44.5,27.9,49.2c21.5,4.9,42.8-6.5,49.2-27.9c5.7-19,11.4-38.1,17.1-57.1c9.2-30.6,18.3-61.1,27.5-91.7     c2.1-7,4.2-14,6.3-21c6-20-7.2-44.5-27.9-49.2C723.4,700.2,702.1,711.6,695.7,733.1L695.7,733.1z"/></g></g><g><g><path d="M255.5,750.8c-4.2-3.3-8.1-6.9-12-10.6c-10.5-9.7-20.4-19.9-29.8-30.5c-7.3-8.1-14.2-16.5-20.9-25.2     c2.1,2.7,4.2,5.4,6.3,8.1c-16.8-21.8-31.8-45-44.2-69.6c-3.9-7.7-7.5-15.5-10.9-23.4c1.3,3.2,2.7,6.4,4,9.6     c-11.5-27.4-19.8-56.1-23.8-85.6c0.5,3.5,1,7.1,1.4,10.6c-3.6-26.8-3.6-53.8-0.1-80.6c-0.5,3.5-1,7.1-1.4,10.6     c4-29.3,12.1-57.9,23.6-85.1c-1.3,3.2-2.7,6.4-4,9.6c14.8-35,34.9-67.4,58-97.5c-2.1,2.7-4.2,5.4-6.3,8.1     c38.8-50.2,85.8-93.5,135.9-132.3c-2.7,2.1-5.4,4.2-8.1,6.3c12.3-9.5,24.7-18.7,37.4-27.6c7.3-5.2,12.8-10.7,16.4-19.1     c3.4-7.9,4.7-17.6,2-26c-2.1-6.6-5.6-12.5-10.3-17.7c-6.2-6.8-19-12.5-28.3-11.7c-22.3,1.9-44.5,3.8-66.8,5.7     c-35.5,3-71.1,6.1-106.6,9.1c-8.2,0.7-16.5,1.4-24.7,2.1c-10.8,0.9-20.4,3.8-28.3,11.7c-6.9,6.9-12.2,18.3-11.7,28.3     c0.5,10.3,3.9,21.1,11.7,28.3c7.4,6.8,17.8,12.6,28.3,11.7c22.3-1.9,44.5-3.8,66.8-5.7c35.5-3,71.1-6.1,106.6-9.1     c8.2-0.7,16.5-1.4,24.7-2.1c-6.7-24.8-13.5-49.7-20.2-74.5c-83.3,59-162.3,128.3-216.5,215.8c-37,59.7-60.3,128.4-60.8,199     c-0.4,57.7,14.7,113.9,39.6,165.6c18.9,39.2,44.5,75.3,73.3,107.9c13.1,14.9,27.1,29.3,42.5,42c0.2,0.2,0.4,0.4,0.6,0.5     c8.6,6.9,16.8,11.7,28.3,11.7c9.8,0,21.5-4.4,28.3-11.7c7-7.6,12.2-17.6,11.7-28.3C266.7,769.2,263.6,757.3,255.5,750.8     L255.5,750.8z"/></g></g><g><g><path d="M328,291.6c5.7-19,11.4-38.1,17.1-57.1c9.2-30.6,18.3-61.1,27.5-91.7c2.1-7,4.2-14,6.3-21     c6-20-7.2-44.5-27.9-49.2c-21.5-4.9-42.8,6.5-49.2,27.9c-5.7,19-11.4,38.1-17.1,57.1c-9.2,30.6-18.3,61.1-27.5,91.7     c-2.1,7-4.2,14-6.3,21c-6,20,7.2,44.5,27.9,49.2C300.3,324.4,321.6,313,328,291.6L328,291.6z"/></g></g><g><g><g><path d="M511.9,472.3c-6,0-12-0.4-18-1.2c3.5,0.5,7.1,1,10.6,1.4c-11.1-1.6-21.9-4.6-32.3-8.9      c3.2,1.3,6.4,2.7,9.6,4c-10.1-4.3-19.5-9.8-28.3-16.5c2.7,2.1,5.4,4.2,8.1,6.3c-9-7-17-14.9-23.9-23.9c2.1,2.7,4.2,5.4,6.3,8.1      c-6.6-8.7-12.2-18.2-16.5-28.3c1.3,3.2,2.7,6.4,4,9.6c-4.3-10.4-7.3-21.2-8.9-32.3c0.5,3.5,1,7.1,1.4,10.6      c-1.6-11.9-1.6-24,0-35.9c-0.5,3.5-1,7.1-1.4,10.6c1.6-11.1,4.6-21.9,8.9-32.3c-1.3,3.2-2.7,6.4-4,9.6      c4.3-10.1,9.8-19.5,16.5-28.3c-2.1,2.7-4.2,5.4-6.3,8.1c7-9,14.9-17,23.9-23.9c-2.7,2.1-5.4,4.2-8.1,6.3      c8.7-6.6,18.2-12.2,28.3-16.5c-3.2,1.3-6.4,2.7-9.6,4c10.4-4.3,21.2-7.3,32.3-8.9c-3.5,0.5-7.1,1-10.6,1.4      c11.9-1.6,24-1.6,35.9,0c-3.5-0.5-7.1-1-10.6-1.4c11.1,1.6,21.9,4.6,32.3,8.9c-3.2-1.3-6.4-2.7-9.6-4      c10.1,4.3,19.5,9.8,28.3,16.5c-2.7-2.1-5.4-4.2-8.1-6.3c9,7,17,14.9,23.9,23.9c-2.1-2.7-4.2-5.4-6.3-8.1      c6.6,8.7,12.2,18.2,16.5,28.3c-1.3-3.2-2.7-6.4-4-9.6c4.3,10.4,7.3,21.2,8.9,32.3c-0.5-3.5-1-7.1-1.4-10.6      c0.8,6,1.2,11.9,1.2,18c0.1,10.3,4.4,21,11.7,28.3c6.9,6.9,18.3,12.2,28.3,11.7c21.6-1,40.1-17.6,40-40      c-0.1-27.6-7-54.2-19.5-78.8c-12-23.4-30-42.4-50.8-58.2c-40.4-30.5-96.1-39.5-144.5-25.8c-25.4,7.2-48.3,20.4-68,37.9      c-20.1,17.8-34.2,40.6-44.1,65.2c-18.9,46.8-13.1,103.5,12.9,146.4c30.5,50.6,86,81.9,145.1,82.2c20.9,0.1,41-18.5,40-40      C550.9,490.5,534.3,472.4,511.9,472.3L511.9,472.3z"/></g></g><g><g><path d="M511.9,552.6c6,0,12,0.4,18,1.2c-3.5-0.5-7.1-1-10.6-1.4c11.1,1.6,21.9,4.6,32.3,8.9      c-3.2-1.3-6.4-2.7-9.6-4c10.1,4.3,19.5,9.8,28.3,16.5c-2.7-2.1-5.4-4.2-8.1-6.3c9,7,17,14.9,23.9,23.9c-2.1-2.7-4.2-5.4-6.3-8.1      c6.6,8.7,12.2,18.2,16.5,28.3c-1.3-3.2-2.7-6.4-4-9.6c4.3,10.4,7.3,21.2,8.9,32.3c-0.5-3.5-1-7.1-1.4-10.6      c1.6,11.9,1.6,24,0,35.9c0.5-3.5,1-7.1,1.4-10.6c-1.6,11.1-4.6,21.9-8.9,32.3c1.3-3.2,2.7-6.4,4-9.6      c-4.3,10.1-9.8,19.5-16.5,28.3c2.1-2.7,4.2-5.4,6.3-8.1c-7,9-14.9,17-23.9,23.9c2.7-2.1,5.4-4.2,8.1-6.3      c-8.7,6.6-18.2,12.2-28.3,16.5c3.2-1.3,6.4-2.7,9.6-4c-10.4,4.3-21.2,7.3-32.3,8.9c3.5-0.5,7.1-1,10.6-1.4      c-11.9,1.6-24,1.6-35.9,0c3.5,0.5,7.1,1,10.6,1.4c-11.1-1.6-21.9-4.6-32.3-8.9c3.2,1.3,6.4,2.7,9.6,4      c-10.1-4.3-19.5-9.8-28.3-16.5c2.7,2.1,5.4,4.2,8.1,6.3c-9-7-17-14.9-23.9-23.9c2.1,2.7,4.2,5.4,6.3,8.1      c-6.6-8.7-12.2-18.2-16.5-28.3c1.3,3.2,2.7,6.4,4,9.6c-4.3-10.4-7.3-21.2-8.9-32.3c0.5,3.5,1,7.1,1.4,10.6      c-0.8-6-1.2-11.9-1.2-18c-0.1-10.3-4.4-21-11.7-28.3c-6.9-6.9-18.3-12.2-28.3-11.7c-21.6,1-40.1,17.6-40,40      c0.1,27.6,7,54.2,19.5,78.8c12,23.4,30,42.4,50.8,58.2c40.4,30.5,96.1,39.5,144.5,25.8c25.4-7.2,48.3-20.4,68-37.9      c20.1-17.8,34.2-40.6,44.1-65.2c18.9-46.8,13.1-103.5-12.9-146.4c-30.5-50.6-86-81.9-145.1-82.2c-20.9-0.1-41,18.5-40,40      C472.8,534.3,489.4,552.5,511.9,552.6L511.9,552.6z"/></g></g><g><g><path d="M471.5,193.9c0,21.2,0,42.4,0,63.6c0,50.7,0,101.4,0,152.1c0,61.3,0,122.6,0,183.9      c0,53.1,0,106.2,0,159.3c0,25.6-0.3,51.3,0,76.9c0,0.4,0,0.7,0,1.1c0,20.9,18.4,41,40,40c21.7-1,40-17.6,40-40      c0-21.2,0-42.4,0-63.6c0-50.7,0-101.4,0-152.1c0-61.3,0-122.6,0-183.9c0-53.1,0-106.2,0-159.3c0-25.6,0.3-51.3,0-76.9      c0-0.4,0-0.7,0-1.1c0-20.9-18.4-41-40-40C489.8,154.9,471.5,171.5,471.5,193.9L471.5,193.9z"/></g></g></g></g><text x="0" y="1039" fill="#000000" font-size="5px" font-weight="bold" font-family="'Helvetica Neue', Helvetica, Arial-Unicode, Arial, Sans-serif">Created by shashank singh</text><text x="0" y="1044" fill="#000000" font-size="5px" font-weight="bold" font-family="'Helvetica Neue', Helvetica, Arial-Unicode, Arial, Sans-serif">from the Noun Project</text></svg>