<svg xmlns="http://www.w3.org/2000/svg" xmlns:xlink="http://www.w3.org/1999/xlink" version="1.1" x="0px" y="0px" viewBox="0 0 100 125" style="enable-background:new 0 0 100 100;" xml:space="preserve"><g><g><g><path d="M71.94138,11c0-3.3-2.7-6-6-6H33.90862c-3.3,0-6,2.7-6,6l0.15,78c0,3.3,2.7,6,6,6h32.03277c3.3,0,6-2.7,6-6L71.94138,11z      M69.84138,82.55c0,1.5-1.2,2.70001-2.7,2.70001H32.85862c-1.5,0-2.7-1.20001-2.7-2.70001v-65.1c0-1.5,1.2-2.7,2.7-2.7h34.28277     c1.5,0,2.7,1.2,2.7,2.7V82.55z"/></g></g><g><g><path d="M58.6404,26.95378h-17.2808c-0.9989,0-1.798,0.79911-1.798,1.798v10.8546c0,0.73252,0.56604,1.49834,1.29855,1.69812     c2.99667,0.83241,6.05994,1.23195,9.15649,1.23195c3.06327,0,6.15983-0.39955,9.1565-1.23195l0,0     c0.69922-0.19978,1.29855-0.9656,1.29855-1.69812v-10.8546C60.43841,27.75289,59.6393,26.95378,58.6404,26.95378z      M59.73919,39.60638c0,0.43285-0.36626,0.89899-0.76583,0.9989c-5.86015,1.59824-12.05326,1.59824-17.91342,0     c-0.39956-0.09988-0.76581-0.59934-0.76581-0.9989v-10.8546c0-0.59934,0.49944-1.09878,1.09878-1.09878h17.2808     c0.59934,0,1.09878,0.49944,1.09878,1.09878C59.73919,28.75178,59.73919,39.60638,59.73919,39.60638z"/><path d="M43.52387,26.42104h13.15206c0.53274,0,0.99888-0.43286,0.99888-0.9989v-0.9989     c0-0.53274-0.43285-0.99888-0.99888-0.99888H43.52387c-0.53274,0-0.9989,0.43286-0.9989,0.99888v0.9989     C42.55827,25.98818,42.99113,26.42104,43.52387,26.42104z M43.2575,24.45655c0-0.16648,0.13319-0.29967,0.29967-0.29967h13.15206     c0.16647,0,0.29967,0.13319,0.29967,0.29967v0.9989c0,0.16648-0.13319,0.29967-0.29967,0.29967H43.52389     c-0.16648,0-0.29967-0.13319-0.29967-0.29967C43.2575,25.45544,43.2575,24.45655,43.2575,24.45655z"/><path d="M43.62377,42.70294l-3.16315-0.53274c-0.23307-0.03328-0.43285,0.0333-0.59934,0.16648     c-0.16648,0.13318-0.26637,0.33295-0.26637,0.56604l-0.0333,1.46503c0,0.19979,0.0666,0.39956,0.23307,0.53274     c0.13319,0.13319,0.33295,0.23309,0.53274,0.23309l0,0h3.22974c0.19978,0,0.39955-0.0999,0.53274-0.23309     s0.19979-0.36626,0.19979-0.56604l-0.0333-0.899C44.25639,43.06919,43.99002,42.76954,43.62377,42.70294z M43.55717,44.40106     h-3.22974l-0.0666-0.0666l0.0333-1.46503l0.0666-0.03328l3.19645,0.59933l0.0333,0.89899L43.55717,44.40106z"/><path d="M60.13874,42.33667c-0.16648-0.13319-0.39956-0.19977-0.59934-0.16647l-3.16315,0.53274     c-0.33297,0.06659-0.59934,0.36626-0.63264,0.69922l-0.03328,0.89899c0,0.19979,0.06659,0.39956,0.19977,0.56604     c0.13319,0.13319,0.33297,0.23309,0.53274,0.23309h3.22974l0,0c0.19979,0,0.39956-0.0666,0.53274-0.23309     c0.13319-0.13319,0.23307-0.33295,0.23307-0.53274l-0.03329-1.43173C60.40511,42.66964,60.30522,42.46987,60.13874,42.33667z      M59.6726,44.43436l-3.26304-0.0333v-0.03329l0.09988-0.9656l3.16315-0.53274l0.0666,0.0333l0.03328,1.46503L59.6726,44.43436z"/><path d="M64.06772,28.15244h-0.23307V27.5864c0-0.83241-0.66592-1.49833-1.49833-1.49833H61.5372v-0.86571     c0-1.83129-1.46503-3.29634-3.29634-3.29634H41.65928c-1.83129,0-3.29634,1.46505-3.29634,3.29634v0.86571h-0.79911     c-0.83241,0-1.49834,0.66593-1.49834,1.49833v0.56604H35.9323c-0.49944,0-0.93229,0.39955-0.93229,0.93229v3.92896     c0,0.49944,0.39956,0.93229,0.93229,0.93229h0.9656c0.49945,0,0.93229-0.39955,0.93229-0.93229v-3.92896     c0-0.49944-0.39955-0.93229-0.93229-0.93229h-0.13319V27.5864c0-0.43286,0.36626-0.79911,0.79911-0.79911h0.79911v19.04552     c0,0.8657,0.63263,1.56492,1.43174,1.7314v1.16538c0,0.53274,0.43286,0.93231,0.93229,0.93231h2.36405     c0.53274,0,0.93229-0.43286,0.93229-0.93231v-1.13206h11.8868v1.13206c0,0.53274,0.43285,0.93231,0.93229,0.93231h2.36403     c0.53274,0,0.93229-0.43286,0.93229-0.93231v-1.16536c0.76583-0.16648,1.36515-0.86571,1.36515-1.69812v-19.0788h0.79913     c0.43285,0,0.79911,0.36626,0.79911,0.79911v0.56604h-0.0666c-0.49944,0-0.93229,0.39955-0.93229,0.93229v3.92896     c0,0.49944,0.39955,0.93229,0.93229,0.93229h1.03218c0.49944,0,0.93229-0.39956,0.93229-0.93229v-3.92896     C65.00002,28.552,64.56715,28.15244,64.06772,28.15244z M37.13098,29.08474v3.92896c0,0.13319-0.09988,0.23307-0.23307,0.23307     h-0.9656c-0.13319,0-0.23307-0.09988-0.23307-0.23307v-3.92896c0-0.13319,0.09988-0.23307,0.23307-0.23307h0.9656     C37.03109,28.85167,37.13098,28.95155,37.13098,29.08474z M43.35739,48.69628c0,0.13319-0.09988,0.23307-0.23307,0.23307     h-2.36405c-0.13319,0-0.23307-0.09988-0.23307-0.23307V47.5975h2.86348v1.09878H43.35739z M59.23974,48.96266H56.8757     c-0.13319,0-0.23307-0.0999-0.23307-0.23309v-1.13207h2.86348v1.13207C59.50611,48.82946,59.37293,48.96266,59.23974,48.96266z      M60.87127,45.83279c0,0.56604-0.46614,1.06548-1.06548,1.06548H40.12765c-0.56604,0-1.06548-0.46615-1.06548-1.06548V25.22236     c0-1.43174,1.16536-2.59712,2.59711-2.59712h16.58157c1.43174,0,2.59711,1.16536,2.59711,2.59712v20.61044H60.87127z      M64.30079,33.0137c0,0.13319-0.09988,0.23307-0.23307,0.23307h-0.9656c-0.13319,0-0.23307-0.09988-0.23307-0.23307v-3.92896     c0-0.13319,0.09988-0.23307,0.23307-0.23307h0.9656c0.13319,0,0.23307,0.09988,0.23307,0.23307V33.0137z"/></g><g><g><g><path d="M47.69069,57.88329h-6.63129v6.63129h6.63129V57.88329z M38.75,55.57398v11.24996H50V55.57398H38.75z        M48.74538,65.56926h-8.74067V56.8286h8.74067V65.56926z"/></g></g><g><polygon points="40.15625,68.23023 38.75,68.23023 38.75,71.04273 41.5625,71.04273 41.5625,69.63648 40.15625,69.63648     "/><rect x="45.78125" y="68.23023" width="1.40625" height="1.40625"/><rect x="47.1875" y="73.85523" width="2.8125" height="1.40625"/><polygon points="58.4375,76.66773 57.03125,76.66773 57.03125,78.07398 61.25,78.07398 61.25,76.66773 59.84375,76.66773       59.84375,75.26148 58.4375,75.26148     "/><polygon points="58.4375,75.26148 58.4375,73.85523 57.03125,73.85523 57.03125,72.44898 54.21875,72.44898 54.21875,73.85523       55.625,73.85523 55.625,76.66773 57.03125,76.66773 57.03125,75.26148     "/><rect x="58.4375" y="72.44898" width="1.40625" height="1.40625"/><rect x="58.4375" y="68.23023" width="1.40625" height="1.40625"/><polygon points="54.21875,75.26148 54.21875,73.85523 52.8125,73.85523 52.8125,72.44898 54.21875,72.44898 54.21875,69.63648       55.625,69.63648 55.625,71.04273 57.03125,71.04273 57.03125,72.44898 58.4375,72.44898 58.4375,69.63648 57.03125,69.63648       57.03125,68.23023 55.625,68.23023 55.625,66.82398 54.21875,66.82398 54.21875,68.23023 52.8125,68.23023 52.8125,66.82398       54.21875,66.82398 54.21875,65.41773 54.21875,64.01148 52.8125,64.01148 52.8125,65.41773 51.40625,65.41773       51.40625,66.82398 51.40625,68.23023 51.40625,69.63648 52.8125,69.63648 52.8125,71.04273 51.40625,71.04273       51.40625,75.26148 50,75.26148 50,76.66773 48.59375,76.66773 48.59375,78.07398 51.40625,78.07398 51.40625,76.66773       52.8125,76.66773 52.8125,75.26148     "/><rect x="59.84375" y="69.63648" width="1.40625" height="2.8125"/><rect x="52.8125" y="76.66773" width="2.8125" height="1.40625"/><rect x="59.84375" y="73.85523" width="1.40625" height="1.40625"/><polygon points="45.78125,69.63648 44.375,69.63648 44.375,68.23023 41.5625,68.23023 41.5625,69.63648 42.96875,69.63648       42.96875,71.04273 44.375,71.04273 44.375,72.44898 45.78125,72.44898     "/><rect x="45.78125" y="72.44898" width="1.40625" height="1.40625"/><polygon points="50,72.44898 50,71.04273 51.40625,71.04273 51.40625,69.63648 50,69.63648 50,68.23023 48.59375,68.23023       48.59375,69.63648 47.1875,69.63648 47.1875,72.44898     "/><polygon points="45.78125,73.85523 44.375,73.85523 44.375,76.66773 45.78125,76.66773 45.78125,78.07398 47.1875,78.07398       47.1875,75.26148 45.78125,75.26148     "/><polygon points="42.96875,73.85523 44.375,73.85523 44.375,72.44898 38.75,72.44898 38.75,75.26148 41.5625,75.26148       41.5625,76.66773 38.75,76.66773 38.75,78.07398 44.375,78.07398 44.375,76.66773 42.96875,76.66773     "/><rect x="51.40625" y="55.57398" width="1.40625" height="1.40625"/><rect x="54.21875" y="55.57398" width="1.40625" height="1.40625"/><rect x="57.03125" y="55.57398" width="1.40625" height="1.40625"/><polygon points="59.84375,55.57398 59.84375,56.98023 58.4375,56.98023 58.4375,58.38648 58.4375,59.79273 59.84375,59.79273       59.84375,58.38648 61.25,58.38648 61.25,56.98023 61.25,55.57398     "/><polygon points="55.625,59.79273 57.03125,59.79273 57.03125,58.38648 57.03125,56.98023 55.625,56.98023 55.625,58.38648           "/><rect x="57.03125" y="59.79273" width="1.40625" height="1.40625"/><rect x="59.84375" y="59.79273" width="1.40625" height="1.40625"/><polygon points="54.21875,62.60523 54.21875,61.19898 55.625,61.19898 55.625,59.79273 54.21875,59.79273 54.21875,58.38648       54.21875,56.98023 52.8125,56.98023 52.8125,58.38648 51.40625,58.38648 51.40625,59.79273 52.8125,59.79273 52.8125,61.19898       51.40625,61.19898 51.40625,62.60523 51.40625,64.01148 52.8125,64.01148 52.8125,62.60523     "/><rect x="55.625" y="61.19898" width="1.40625" height="1.40625"/><polygon points="58.4375,62.60523 58.4375,64.01148 59.84375,64.01148 59.84375,65.41773 61.25,65.41773 61.25,64.01148       61.25,62.60523 59.84375,62.60523 59.84375,61.19898 58.4375,61.19898     "/><rect x="54.21875" y="62.60523" width="1.40625" height="1.40625"/><rect x="58.4375" y="65.41773" width="1.40625" height="1.40625"/><rect x="57.03125" y="66.82398" width="1.40625" height="1.40625"/><rect x="59.84375" y="66.82398" width="1.40625" height="1.40625"/><polygon points="55.625,64.01148 55.625,65.41773 55.625,66.82398 57.03125,66.82398 57.03125,65.41773 58.4375,65.41773       58.4375,64.01148 57.03125,64.01148     "/></g></g></g></g><text x="0" y="115" fill="#000000" font-size="5px" font-weight="bold" font-family="'Helvetica Neue', Helvetica, Arial-Unicode, Arial, Sans-serif">Created by Bence Bezeredy</text><text x="0" y="120" fill="#000000" font-size="5px" font-weight="bold" font-family="'Helvetica Neue', Helvetica, Arial-Unicode, Arial, Sans-serif">from the Noun Project</text></svg>