<svg xmlns="http://www.w3.org/2000/svg" xmlns:xlink="http://www.w3.org/1999/xlink" version="1.1" x="0px" y="0px" viewBox="0 0 100 125" style="enable-background:new 0 0 100 100;" xml:space="preserve"><path d="M35.823,26.333h29.906c0.552,0,1-0.447,1-1s-0.448-1-1-1H35.823c-0.552,0-1,0.447-1,1S35.271,26.333,35.823,26.333z"/><path d="M80.513,29.435h-44.69c-0.552,0-1,0.447-1,1s0.448,1,1,1h44.69c0.552,0,1-0.447,1-1S81.065,29.435,80.513,29.435z"/><path d="M89.121,37.937c0.552,0,1-0.447,1-1V18.832c0-0.553-0.448-1-1-1h-8.125v-6.83c0-0.553-0.448-1-1-1s-1,0.447-1,1v6.83H21.163  v-6.83c0-0.553-0.448-1-1-1s-1,0.447-1,1v6.83h-8.038c-0.552,0-1,0.447-1,1v18.104c0,0.553,0.448,1,1,1h8.038v5.927h-8.038  c-0.552,0-1,0.447-1,1v18.104c0,0.553,0.448,1,1,1h8.038v5.928h-8.038c-0.552,0-1,0.447-1,1V89c0,0.553,0.448,1,1,1h77.996  c0.552,0,1-0.447,1-1V70.896c0-0.553-0.448-1-1-1h-8.125v-5.928h8.125c0.552,0,1-0.447,1-1V44.863c0-0.553-0.448-1-1-1h-8.125  v-5.927H89.121z M88.121,71.896V88H12.125V71.896H88.121z M21.163,69.896v-5.928h57.833v5.928H21.163z M88.121,45.863v16.104H12.125  V45.863H88.121z M21.163,43.863v-5.927h57.833v5.927H21.163z M12.125,35.937V19.832h75.996v16.104H12.125z"/><path d="M28.402,27.176l-3.719-3.719c-0.391-0.391-1.023-0.391-1.414,0s-0.391,1.023,0,1.414l2.013,2.013h-5.975  c-0.552,0-1,0.447-1,1s0.448,1,1,1h5.975l-2.013,2.013c-0.391,0.391-0.391,1.023,0,1.414c0.195,0.195,0.451,0.293,0.707,0.293  s0.512-0.098,0.707-0.293l3.719-3.719c0.093-0.092,0.166-0.203,0.217-0.326c0.101-0.244,0.101-0.52,0-0.764  C28.568,27.379,28.495,27.268,28.402,27.176z"/><path d="M35.823,52.363h29.906c0.552,0,1-0.447,1-1s-0.448-1-1-1H35.823c-0.552,0-1,0.447-1,1S35.271,52.363,35.823,52.363z"/><path d="M35.823,57.466h44.69c0.552,0,1-0.447,1-1s-0.448-1-1-1h-44.69c-0.552,0-1,0.447-1,1S35.271,57.466,35.823,57.466z"/><path d="M19.782,54.44c0.256,0,0.512-0.098,0.707-0.293l2.013-2.013v5.975c0,0.553,0.448,1,1,1s1-0.447,1-1v-5.975l2.013,2.013  c0.391,0.391,1.023,0.391,1.414,0s0.391-1.023,0-1.414l-3.72-3.719c-0.092-0.093-0.203-0.166-0.326-0.217  c-0.244-0.101-0.52-0.101-0.764,0c-0.123,0.051-0.233,0.124-0.326,0.217l-3.719,3.719c-0.391,0.391-0.391,1.023,0,1.414  C19.27,54.343,19.526,54.44,19.782,54.44z"/><path d="M35.823,78.396h29.906c0.552,0,1-0.447,1-1s-0.448-1-1-1H35.823c-0.552,0-1,0.447-1,1S35.271,78.396,35.823,78.396z"/><path d="M35.823,83.498h44.69c0.552,0,1-0.447,1-1s-0.448-1-1-1h-44.69c-0.552,0-1,0.447-1,1S35.271,83.498,35.823,83.498z"/><path d="M20.489,80.18l2.013-2.013v5.975c0,0.553,0.448,1,1,1s1-0.447,1-1v-5.975l2.013,2.013c0.195,0.195,0.451,0.293,0.707,0.293  s0.512-0.098,0.707-0.293c0.391-0.391,0.391-1.023,0-1.414l-3.72-3.719c-0.092-0.093-0.203-0.166-0.326-0.217  c-0.244-0.101-0.52-0.101-0.764,0c-0.123,0.051-0.233,0.124-0.326,0.217l-3.719,3.719c-0.391,0.391-0.391,1.023,0,1.414  S20.098,80.57,20.489,80.18z"/><text x="0" y="115" fill="#000000" font-size="5px" font-weight="bold" font-family="'Helvetica Neue', Helvetica, Arial-Unicode, Arial, Sans-serif">Created by Made</text><text x="0" y="120" fill="#000000" font-size="5px" font-weight="bold" font-family="'Helvetica Neue', Helvetica, Arial-Unicode, Arial, Sans-serif">from the Noun Project</text></svg>