<svg xmlns="http://www.w3.org/2000/svg" xmlns:xlink="http://www.w3.org/1999/xlink" version="1.1" x="0px" y="0px" viewBox="0 0 90 112.5" style="enable-background:new 0 0 90 90;" xml:space="preserve"><path d="M19.900391,76.106934h38.344238h11.85498c0.552246,0,1-0.447754,1-1V14.893066c0-0.552246-0.447754-1-1-1h-11.85498  H19.900391c-0.552246,0-1,0.447754-1,1v60.213867C18.900391,75.65918,19.348145,76.106934,19.900391,76.106934z   M59.244629,15.893066h9.85498v58.213867h-9.85498V15.893066z M20.900391,15.893066h36.344238v58.213867H20.900391V15.893066z"/><path d="M53.383789,17.342285H24.76123c-0.041687,0-0.077148,0.018799-0.117493,0.023743  c-0.04071,0.004822-0.080017-0.005005-0.120789,0.005066c-0.026855,0.006592-0.046204,0.025269-0.07196,0.033875  c-0.065857,0.021851-0.123901,0.051697-0.182922,0.085999c-0.054932,0.03186-0.106934,0.062866-0.153992,0.103821  c-0.048584,0.042114-0.087402,0.089478-0.127136,0.140076c-0.039673,0.050659-0.076416,0.09967-0.105713,0.15686  c-0.028625,0.055542-0.046326,0.113403-0.064209,0.174377c-0.019287,0.06543-0.034424,0.128845-0.039978,0.197876  c-0.002197,0.027222-0.015808,0.050537-0.015808,0.078308v22.835938c0,0.00116,0.000671,0.002075,0.000671,0.003235  c0.000427,0.130249,0.026123,0.260132,0.077209,0.382263c0.051147,0.122192,0.125549,0.231812,0.21814,0.323669  c0.000793,0.000793,0.001038,0.001953,0.001831,0.002747c0.026123,0.025757,0.060059,0.035583,0.088135,0.057922  c0.072998,0.058228,0.145569,0.117126,0.233154,0.153259c0.121887,0.050232,0.250977,0.076904,0.380859,0.076904h28.622559  c0.552246,0,1-0.447754,1-1V18.342285C54.383789,17.790039,53.936035,17.342285,53.383789,17.342285z M25.76123,26.617432  l2.381531,9.709961l-2.381531,2.413635V26.617432z M52.383789,40.178223H27.152588l2.512451-2.546387h22.71875V40.178223z   M52.383789,35.631836H30.031433l-3.9953-16.289551h26.347656V35.631836z"/><path d="M64.260742,22.644531c-1.897461,0-2.890137,2.64209-2.890137,5.251953s0.992676,5.251465,2.890137,5.251465  s2.890137-2.641602,2.890137-5.251465S66.158203,22.644531,64.260742,22.644531z M64.298828,31.153809  c-0.26416-0.106445-0.928223-1.231445-0.928223-3.257324s0.664063-3.151367,0.852051-3.257813  c0.26416,0.106445,0.928223,1.231934,0.928223,3.257813S64.486816,31.047363,64.298828,31.153809z"/><path d="M52.225586,45.378418H24.76123c-0.552246,0-1,0.447754-1,1v22.59082c0,0.552246,0.447754,1,1,1s1-0.447754,1-1v-21.59082  h26.464355c0.552246,0,1-0.447754,1-1S52.777832,45.378418,52.225586,45.378418z"/><path d="M64.260742,35.133301c-1.897461,0-2.890137,2.641602-2.890137,5.251465s0.992676,5.251465,2.890137,5.251465  s2.890137-2.641602,2.890137-5.251465S66.158203,35.133301,64.260742,35.133301z M64.298828,43.64209  c-0.26416-0.106445-0.928223-1.231445-0.928223-3.257324s0.664063-3.150879,0.852051-3.257324  c0.26416,0.106445,0.928223,1.231445,0.928223,3.257324S64.486816,43.535645,64.298828,43.64209z"/><path d="M36.267578,49.439453h-7.470703c-0.552246,0-1,0.447754-1,1v16.242188c0,0.552246,0.447754,1,1,1h7.470703  c0.552246,0,1-0.447754,1-1V50.439453C37.267578,49.887207,36.819824,49.439453,36.267578,49.439453z M35.267578,65.681641  h-5.470703V51.439453h5.470703V65.681641z"/><path d="M50.759277,49.535645h-8.911133c-0.552246,0-1,0.447754-1,1v2.945801c0,0.552246,0.447754,1,1,1h8.911133  c0.552246,0,1-0.447754,1-1v-2.945801C51.759277,49.983398,51.311523,49.535645,50.759277,49.535645z M49.759277,52.481445  h-6.911133v-0.945801h6.911133V52.481445z"/><path d="M50.759277,56.087891h-8.911133c-0.552246,0-1,0.447754-1,1v2.945801c0,0.552246,0.447754,1,1,1h8.911133  c0.552246,0,1-0.447754,1-1v-2.945801C51.759277,56.535645,51.311523,56.087891,50.759277,56.087891z M49.759277,59.033691  h-6.911133v-0.945801h6.911133V59.033691z"/><text x="0" y="105" fill="#000000" font-size="5px" font-weight="bold" font-family="'Helvetica Neue', Helvetica, Arial-Unicode, Arial, Sans-serif">Created by iconcheese</text><text x="0" y="110" fill="#000000" font-size="5px" font-weight="bold" font-family="'Helvetica Neue', Helvetica, Arial-Unicode, Arial, Sans-serif">from the Noun Project</text></svg>