<svg xmlns="http://www.w3.org/2000/svg" data-name="Layer 1" viewBox="0 0 100 125" x="0px" y="0px"><title>office</title><path d="M69.56,31.32a1,1,0,0,0-.46-.13H56.19V27.38a1,1,0,0,0-1-1H26.41a1,1,0,0,0-1,1V31.2H12.5a1,1,0,0,0-1,1V72.62a1,1,0,0,0,1,1H69.1a.87.87,0,0,0,.43-.12,21.21,21.21,0,0,0,0-42.18ZM27.41,28.38H54.19V31.2H27.41ZM13.5,71.62V33.2H58.3c-.29.14-.57.29-.86.44l-.34.17q-.8.44-1.56.95l-.36.25q-.59.41-1.15.86l-.41.33c-.44.37-.86.75-1.27,1.15l-.08.08c-.43.43-.83.88-1.22,1.34l-.32.4q-.44.55-.84,1.13l-.27.39c-.34.5-.65,1-.95,1.56l-.14.28q-.36.68-.67,1.39l-.21.5q-.29.7-.52,1.43c0,.11-.08.23-.12.34-.18.59-.34,1.19-.47,1.8,0,.15-.06.31-.09.47q-.14.72-.22,1.46c0,.18,0,.36-.06.54-.06.64-.1,1.29-.1,1.94s0,1.3.1,1.94c0,.18,0,.36.06.54q.09.74.22,1.46c0,.16.05.31.09.47.13.61.28,1.21.46,1.8,0,.12.08.23.12.34q.24.73.52,1.43l.21.5q.31.71.67,1.39l.14.28c.29.53.61,1.05.95,1.56l.27.39q.4.58.84,1.13l.32.4c.39.46.79.92,1.22,1.34l.08.08c.41.4.83.78,1.27,1.15L54,69q.56.45,1.15.86l.36.25q.76.5,1.56.95l.34.17c.28.15.57.3.86.44ZM69,71.54h0c-.56,0-1.13.09-1.7.09a19.21,19.21,0,0,1,0-38.43c.57,0,1.14,0,1.7.09h.1A19.21,19.21,0,0,1,69,71.54Z"/><path d="M68.29,49.17V35.62a1,1,0,0,0-2,0V49.17a3.4,3.4,0,0,0-2.41,3.24A3.37,3.37,0,0,0,64.29,54L54.7,63.58A1,1,0,1,0,56.12,65l9.58-9.58a3.37,3.37,0,0,0,1.59.41,3.4,3.4,0,0,0,1-6.65Zm-1,4.65a1.41,1.41,0,1,1,1.41-1.41A1.41,1.41,0,0,1,67.29,53.82Z"/><path d="M26,37.88H21.21a1,1,0,0,0,0,2H26a1,1,0,0,0,0-2Z"/><path d="M26,45.5H21.21a1,1,0,0,0,0,2H26a1,1,0,0,0,0-2Z"/><path d="M26,53.12H21.21a1,1,0,0,0,0,2H26a1,1,0,0,0,0-2Z"/><path d="M26,60.74H21.21a1,1,0,0,0,0,2H26a1,1,0,0,0,0-2Z"/><path d="M34.72,37.88H29.9a1,1,0,1,0,0,2h4.82a1,1,0,0,0,0-2Z"/><path d="M34.72,45.5H29.9a1,1,0,1,0,0,2h4.82a1,1,0,0,0,0-2Z"/><path d="M34.72,53.12H29.9a1,1,0,1,0,0,2h4.82a1,1,0,0,0,0-2Z"/><path d="M34.72,60.74H29.9a1,1,0,1,0,0,2h4.82a1,1,0,0,0,0-2Z"/><path d="M43.41,37.88H38.59a1,1,0,0,0,0,2h4.82a1,1,0,0,0,0-2Z"/><path d="M43.41,45.5H38.59a1,1,0,0,0,0,2h4.82a1,1,0,0,0,0-2Z"/><path d="M43.41,53.12H38.59a1,1,0,0,0,0,2h4.82a1,1,0,0,0,0-2Z"/><path d="M43.41,60.74H38.59a1,1,0,0,0,0,2h4.82a1,1,0,0,0,0-2Z"/><text x="0" y="115" fill="#000000" font-size="5px" font-weight="bold" font-family="'Helvetica Neue', Helvetica, Arial-Unicode, Arial, Sans-serif">Created by Edwin PM</text><text x="0" y="120" fill="#000000" font-size="5px" font-weight="bold" font-family="'Helvetica Neue', Helvetica, Arial-Unicode, Arial, Sans-serif">from the Noun Project</text></svg>